<svg width="11" height="10" viewBox="0 0 11 10" fill="none" xmlns="http://www.w3.org/2000/svg">
<path d="M3.57725 0.0746307C3.66869 0.0746307 3.75638 0.110955 3.82104 0.175613C3.8857 0.240271 3.92202 0.327967 3.92202 0.419407V1.06414H7.62442V0.42384C7.62442 0.332399 7.66075 0.244704 7.72541 0.180046C7.79006 0.115388 7.87776 0.0790636 7.9692 0.0790636C8.06064 0.0790636 8.14834 0.115388 8.21299 0.180046C8.27765 0.244704 8.31398 0.332399 8.31398 0.42384V1.06414H9.64875C9.90993 1.06414 10.1604 1.16785 10.3451 1.35249C10.5299 1.53712 10.6337 1.78755 10.6338 2.04872V8.94079C10.6337 9.20197 10.5299 9.4524 10.3451 9.63703C10.1604 9.82166 9.90993 9.92538 9.64875 9.92538H1.76816C1.50698 9.92538 1.2565 9.82166 1.07178 9.63703C0.887054 9.4524 0.783212 9.20197 0.783081 8.94079V2.04872C0.783212 1.78755 0.887054 1.53712 1.07178 1.35249C1.2565 1.16785 1.50698 1.06414 1.76816 1.06414H3.23247V0.418914C3.2326 0.327559 3.26898 0.239991 3.33363 0.175439C3.39827 0.110888 3.48589 0.0746306 3.57725 0.0746307ZM1.47263 3.88785V8.94079C1.47263 8.9796 1.48028 9.01803 1.49513 9.05389C1.50998 9.08974 1.53175 9.12232 1.55919 9.14976C1.58663 9.1772 1.61921 9.19897 1.65506 9.21382C1.69092 9.22867 1.72935 9.23632 1.76816 9.23632H9.64875C9.68756 9.23632 9.72599 9.22867 9.76184 9.21382C9.7977 9.19897 9.83028 9.1772 9.85772 9.14976C9.88516 9.12232 9.90693 9.08974 9.92178 9.05389C9.93663 9.01803 9.94428 8.9796 9.94428 8.94079V3.89475L1.47263 3.88785ZM4.06683 7.27503V8.0956H3.24577V7.27503H4.06683ZM6.11874 7.27503V8.0956H5.29817V7.27503H6.11874ZM8.17114 7.27503V8.0956H7.35008V7.27503H8.17114ZM4.06683 5.31621V6.13678H3.24577V5.31621H4.06683ZM6.11874 5.31621V6.13678H5.29817V5.31621H6.11874ZM8.17114 5.31621V6.13678H7.35008V5.31621H8.17114ZM3.23247 1.7532H1.76816C1.72935 1.7532 1.69092 1.76084 1.65506 1.77569C1.61921 1.79054 1.58663 1.81231 1.55919 1.83975C1.53175 1.8672 1.50998 1.89977 1.49513 1.93563C1.48028 1.97148 1.47263 2.00991 1.47263 2.04872V3.19879L9.94428 3.20569V2.04872C9.94428 2.00991 9.93663 1.97148 9.92178 1.93563C9.90693 1.89977 9.88516 1.8672 9.85772 1.83975C9.83028 1.81231 9.7977 1.79054 9.76184 1.77569C9.72599 1.76084 9.68756 1.7532 9.64875 1.7532H8.31398V2.21077C8.31398 2.30221 8.27765 2.3899 8.21299 2.45456C8.14834 2.51922 8.06064 2.55554 7.9692 2.55554C7.87776 2.55554 7.79006 2.51922 7.72541 2.45456C7.66075 2.3899 7.62442 2.30221 7.62442 2.21077V1.7532H3.92202V2.20633C3.92202 2.29777 3.8857 2.38547 3.82104 2.45013C3.75638 2.51478 3.66869 2.55111 3.57725 2.55111C3.4858 2.55111 3.39811 2.51478 3.33345 2.45013C3.26879 2.38547 3.23247 2.29777 3.23247 2.20633V1.7532Z" fill="white"/>
</svg>
